<svg xmlns:xlink="http://www.w3.org/1999/xlink" width="101" height="100" viewBox="0 0 101 100">
  <defs>
    <circle id="icon-user-a" cx="50.5" cy="50" r="50"/>
    <circle id="icon-user-c" cx="50.5" cy="50" r="50"/>
    <path id="icon-user-e" d="M100.5,39 L100.5,25 C100.5,25 79.3,20.1 72.5,18.3 C70,17.6 65.5,15 65.5,6.3 C65.5,4.6 65.5,0 65.5,0 L50.5,0 L35.5,0 C35.5,0 35.5,4.6 35.5,6.3 C35.5,15 31,17.6 28.5,18.3 C21.7,20.2 0.4,25.6 0.4,25 L0.4,39 L50.5,39 L100.5,39 Z"/>
  </defs>
  <g fill="none" fill-rule="evenodd">
    <circle cx="50.5" cy="50" r="50" fill="#991C21" fill-rule="nonzero"/>
    <mask id="icon-user-b" fill="#fff">
      <use xlink:href="#icon-user-a"/>
    </mask>
    <path fill="#E6C19C" fill-rule="nonzero" d="M100.5,100 L100.5,86 C100.5,86 79.3,81.1 72.5,79.3 C70,78.6 65.5,76 65.5,67.3 C65.5,65.6 65.5,61 65.5,61 L50.5,61 L35.5,61 C35.5,61 35.5,65.6 35.5,67.3 C35.5,76 31,78.6 28.5,79.3 C21.7,81.2 0.4,86.6 0.4,86 L0.4,100 L50.5,100 L100.5,100 Z" mask="url(#icon-user-b)"/>
    <g>
      <mask id="icon-user-d" fill="#fff">
        <use xlink:href="#icon-user-c"/>
      </mask>
      <g mask="url(#icon-user-d)">
        <g transform="translate(0 61)">
          <mask id="icon-user-f" fill="#fff">
            <use xlink:href="#icon-user-e"/>
          </mask>
          <path fill="#D4B08C" fill-rule="nonzero" d="M50.5,18.1 C63.2,18.1 73.5,-0.5 73.5,-16.3 C73.5,-32.5 63.2,-41 50.5,-41 C37.8,-41 27.5,-32.5 27.5,-16.3 C27.5,-0.5 37.8,18.1 50.5,18.1 Z" mask="url(#icon-user-f)"/>
        </g>
      </g>
    </g>
    <path fill="#F2CEA5" fill-rule="nonzero" d="M50.5,75 C63.2,75 73.5,58.7 73.5,44 C73.5,28.9 63.2,21 50.5,21 C37.8,21 27.5,28.9 27.5,44 C27.5,58.7 37.8,75 50.5,75 Z"/>
    <g transform="translate(56 49)">
      <path fill="#D8D8D8" d="M21.3929558,30.1986298 C23.3929558,31.5319631 24.7262891,31.5319631 25.3929558,30.1986298 C26.3929558,28.1986298 25.3929558,29.1986298 26.3929558,29.1986298 C27.3929558,29.1986298 31.3929558,31.1986298 33.3929558,27.1986298 C34.7262891,24.5319631 34.3929558,21.8652965 32.3929558,19.1986298 C36.3929558,17.8652965 38.3929558,15.5319631 38.3929558,12.1986298 C38.3929558,7.19862982 40.3929558,1.19862982 30.3929558,0.198629816 C20.3929558,-0.801370184 19.3929558,2.19862982 18.3929558,4.19862982 C17.3929558,6.19862982 15.3929558,13.1986298 19.3929558,15.1986298 C22.0596225,16.5319631 23.3929558,17.5319631 23.3929558,18.1986298 C22.0596225,19.5319631 21.3929558,20.5319631 21.3929558,21.1986298 C21.3929558,22.1986298 21.3929558,24.1986298 24.3929558,25.1986298 C27.3929558,26.1986298 25.3929558,25.1986298 24.3929558,26.1986298 C23.7262891,26.8652965 22.7262891,28.1986298 21.3929558,30.1986298 Z"/>
      <g transform="translate(0 14)">
        <path fill="#C62D2D" d="M21,17 L23.5,17 C23.5,17 23.5,16.6666667 23.5,16 C23.5,15.3333333 23.8333333,15 24.5,15 L24.5,13 C23.1666667,11.6666667 22.1666667,11 21.5,11 C20.8333333,11 20.6666667,13 21,17 Z"/>
        <path fill="#FFF" d="M23.8957535,14.5812119 C23.9744799,14.8382774 23.402509,14.9684168 23.105277,14.9186104 C22.808045,14.8688039 22.8433915,15.1403294 22.9526443,15.3411619 C23.0635039,15.543601 23.095637,15.9565125 23.0586839,16.2971243 C23.0233374,16.6377362 22.7485986,16.8160754 22.2682073,16.6345229 C21.7910294,16.4513637 21.4423843,16.0882586 21.4423843,16.0882586 L20.9957329,14.4848123 L21.9275955,12.9279591 L22.4979597,12.3302817 L23.0490439,12.4427479 L23.7784674,12.8283462 C23.7784674,12.8283462 24.0532062,13.2621443 23.9905465,13.5159965 L23.7672208,14.009241 C23.7672208,14.009241 23.8154206,14.3225397 23.8957535,14.5812119 Z M24.4275579,12.6901735 C24.0451729,12.650007 23.648328,11.8739904 23.6033415,11.729391 C23.5599617,11.5847916 16.0552545,6.76481273 12.9977812,5.06657349 C10.1764869,3.49847369 3.29355703,0.661112768 2.24922827,0.233741305 C2.24922827,0.233741305 1.97127615,0.0698620219 1.50855818,0.0168422539 C1.04744686,-0.0361775141 -0.406580108,-0.0747373454 0.109157635,1.73275475 C0.125224231,1.78577451 0.557415673,2.25009915 0.828941152,2.31757885 C1.73831051,2.83010328 4.06154034,4.03991798 6.20000432,5.6272977 C8.6646202,7.45567637 13.1439873,11.2008 16.6545386,14.0269143 C20.1650899,16.8546352 20.9137933,16.8883751 21.953302,17.5181857 C22.9928108,18.1496029 23.2450564,17.596912 23.7318743,17.2884333 C24.2170855,16.9799547 23.633868,15.9452659 23.5937015,15.6400006 C23.5519284,15.3363419 24.0789127,15.3331286 24.4661177,15.2142358 C24.851716,15.0953429 24.5287774,14.5603253 24.469331,14.3675261 C24.4098846,14.174727 24.4468378,13.9530079 24.7215766,13.8148352 C24.9963154,13.6782691 24.5576973,13.2846375 24.8806359,13.1320049 C25.2035745,12.9793722 24.8099429,12.7319466 24.4275579,12.6901735 L24.4275579,12.6901735 Z"/>
      </g>
    </g>
  </g>
</svg>
