<?xml version="1.0" encoding="utf-8"?>
<!-- Generator: Adobe Illustrator 19.2.1, SVG Export Plug-In . SVG Version: 6.00 Build 0)  -->
<svg version="1.1" id="Layer_1" xmlns="http://www.w3.org/2000/svg" xmlns:xlink="http://www.w3.org/1999/xlink" x="0px" y="0px"
	 viewBox="0 0 1753.8 862" style="enable-background:new 0 0 1753.8 862;" xml:space="preserve">
<style type="text/css">
	.st0{fill:#62BE6E;}
	.st1{fill:#52BB70;}
	.st2{fill:#24AC71;}
	.st3{fill:#5CBB57;}
	.st4{fill:#FFFFFF;}
	.st5{fill:#CC3333;}
	.st6{fill:#2F3843;}
	.st7{fill:#F8981D;}
	.st8{fill:#F36C21;}
	.st9{fill:#CB2027;}
	.st10{fill:#ED7E23;}
	.st11{fill:#3A8D43;}
	.st12{fill:#8E408E;}
	.st13{fill:#8D4041;}
	.st14{fill:#18A54A;}
	.st15{fill:#9B3C96;}
	.st16{fill:#A92848;}
	.st17{fill:none;stroke:#000000;stroke-width:0.7111;stroke-miterlimit:10;}
	.st18{fill:#FFFFFF;stroke:#FFFFFF;stroke-width:0.5;stroke-miterlimit:10;}
	.st19{fill:#FFFFFF;stroke:#FFFFFF;stroke-width:0.75;stroke-miterlimit:10;}
	.st20{fill:#6ABD45;}
	.st21{fill:#20AD70;}
	.st22{fill:#454546;}
	.st23{fill:#CC202A;}
	.st24{fill:#622A77;}
	.st25{fill:#3ABCA5;}
	.st26{fill:#F4F9EF;}
	.st27{fill:#3D88C6;}
	.st28{fill:#080909;}
	.st29{fill:#991C21;}
	.st30{fill:#4A1F59;}
	.st31{fill:#2A8D7C;}
	.st32{fill:#B7BBB3;}
	.st33{fill:#2E6796;}
	.st34{fill:#474748;}
</style>
<g>
	<path class="st4" d="M3,578.7c-3.1-9.1-2.2-23.9,2.7-44.2c4.8-20.3,12.2-44.1,22.1-71.3c9.9-27.2,21.5-56.5,34.7-88.1
		c13.2-31.5,26.8-63.3,40.8-95.3c14-32,27.5-63.1,40.4-93.4c12.9-30.2,24.3-57.3,33.9-81.2c9.6-23.9,16.8-43.7,21.3-59.5
		c4.6-15.8,5.3-25.2,2.3-28.2c-3.6-3.1-1.9-6.6,5-10.7c6.9-4.1,15.5-6.3,25.9-6.9c10.4-0.5,21,1.8,31.6,6.9
		c10.7,5.1,18.3,15.3,22.9,30.5c3,10.7,1.5,27.2-4.6,49.6c-6.1,22.4-15,48.2-26.7,77.4c-11.7,29.2-25.3,60.6-40.8,94.2
		s-31.1,66.8-46.9,99.9c10.7-8.6,22.6-18.2,35.8-28.6c13.2-10.4,26.6-21.2,40-32.4c13.5-11.2,26.5-22.5,39.3-33.9
		c12.7-11.4,24-22,33.9-31.6c9.9-9.6,17.9-18.4,24-26.3c6.1-7.9,9.2-14.1,9.2-18.7c0-4.6,3.8-5.8,11.4-3.8c7.6,2,15.2,6.7,22.9,14.1
		c7.6,7.4,13.2,16.8,16.8,28.2c3.5,11.4,1.3,24-6.9,37.7c-6.1,10.7-15.6,21.1-28.6,31.3c-12.9,10.2-27.6,19.8-43.8,29
		s-33.3,17.8-51.1,25.9c-17.8,8.1-34.8,15.5-51.1,22.1c7.6,11.7,17.1,28.2,28.6,49.6c11.4,21.3,24.3,44.9,38.5,70.5
		c14.2,25.7,29.5,51.7,45.7,78.1c16.3,26.4,33.2,50.6,50.7,72.4c17.5,21.8,35.1,39.8,52.6,53.7c17.5,14,34.7,21.2,51.5,21.7
		c4.6,0,6.5,3.4,5.7,10.3c-0.8,6.9-4.2,14.4-10.3,22.5c-6.1,8.1-14.7,15.6-25.9,22.5c-11.2,6.9-24.7,10-40.4,9.5
		c-23.9-0.5-45.2-10.2-64-29c-18.8-18.8-35.7-42.3-50.7-70.5c-15-28.2-28.5-58.7-40.4-91.5c-11.9-32.8-22.9-63.7-32.8-92.6
		s-19.1-53.5-27.4-73.6c-8.4-20.1-16.9-31.6-25.5-34.7c-7.1,3.6-13.3,6.7-18.7,9.5c-5.3,2.8-9.8,5.5-13.3,8
		c-11.2,23.4-21.5,45.6-30.9,66.7c-9.4,21.1-17.3,40-23.6,56.8c-6.4,16.8-10.9,31-13.7,42.7c-2.8,11.7-2.9,19.8-0.4,24.4
		c2,4.1,0.4,8.3-4.9,12.6c-5.3,4.3-12.2,6.6-20.6,6.9c-8.4,0.3-17-2.4-25.9-8C14.4,604.4,7.6,594,3,578.7z"/>
	<path class="st4" d="M778.4,385.1c-4.1,8.7-9.9,20.5-17.5,35.5c-7.6,15-16.6,31-27.1,48c-10.4,17-21.7,34.2-33.9,51.5
		c-12.2,17.3-24.8,33-37.7,47.3c-12.9,14.2-26,25.9-39.3,35.1c-13.2,9.1-25.9,13.7-38.1,13.7c-10.2,0.5-18.9-1.5-26.3-6.1
		c-7.4-4.6-13.3-11.1-17.9-19.4c-4.6-8.4-7.6-18.5-9.2-30.5c-1.5-11.9-1.5-24.8,0-38.5c0-2.5,0.2-5,0.8-7.2c0.5-2.3,1-4.7,1.5-7.2
		c-9.7,14.2-19.7,27.8-30.1,40.8c-10.4,13-21,24.5-31.6,34.7c-10.7,10.2-21.3,18.3-32,24.4c-10.7,6.1-20.8,9.1-30.5,9.1
		c-10.2,0.5-18.9-1.5-26.3-6.1c-7.4-4.6-13.4-11.1-17.9-19.4s-7.6-18.5-9.1-30.5c-1.5-11.9-1.5-24.8,0-38.5c2-16.8,6-34.6,11.8-53.4
		c5.9-18.8,12.6-37.6,20.2-56.4c7.6-18.8,15.4-37,23.3-54.5c7.9-17.5,14.7-33.4,20.6-47.7c5.8-14.2,9.9-26.2,12.2-35.8
		c2.3-9.7,1.6-16.3-1.9-19.8c-3.5-3.1-1.9-6.6,5-10.7c6.9-4.1,15.4-6.3,25.5-6.9c10.2-0.5,20.7,1.8,31.6,6.9
		c10.9,5.1,18.7,15.3,23.3,30.5c4.6,14.7,3.8,32.7-2.3,53.7c-6.1,21.1-14.6,43.1-25.5,65.9c-10.9,22.9-22.6,45.5-35.1,67.9
		c-12.5,22.4-22.9,42.3-31.3,59.9c-8.4,17.5-13.2,31.5-14.5,41.9c-1.3,10.4,3.9,15.1,15.6,14.1c6.1-0.5,15-6.9,26.7-19.1
		c11.7-12.2,24-27.3,37-45.4c12.9-18,25.7-37.1,38.1-57.2c12.4-20.1,22.7-38,30.9-53.8c7.6-17.8,15.1-34.8,22.5-51.1
		c7.4-16.3,13.7-31.1,19.1-44.6c5.3-13.5,9-24.8,11.1-33.9c2-9.1,1.3-15.2-2.3-18.3c-3.6-3.1-1.9-6.6,4.9-10.7
		c6.9-4.1,15.4-6.3,25.5-6.9c10.2-0.5,20.7,1.8,31.6,6.9c10.9,5.1,18.7,15.3,23.3,30.5c4.6,14.7,3.8,32.7-2.3,53.7
		c-6.1,21.1-14.6,43.1-25.5,65.9c-10.9,22.9-22.6,45.5-35.1,67.9c-12.5,22.4-22.9,42.3-31.2,59.9c-8.4,17.5-13.2,31.5-14.5,41.9
		c-1.3,10.4,3.9,15.1,15.6,14.1c4.6-0.5,10.9-4.6,19.1-12.2c8.1-7.6,17-17.4,26.7-29.4c9.6-11.9,19.5-25.3,29.7-40
		c10.2-14.7,19.8-29.5,29-44.2c9.1-14.7,17.3-28.7,24.4-41.9c7.1-13.2,12.2-24.1,15.3-32.8c1.5-4.1,4.1-6.6,7.6-7.6
		c3.5-1,6.9-1,9.9,0c3,1,5.4,3,7.2,6.1C780.5,378.2,780.4,381.5,778.4,385.1z"/>
	<path class="st4" d="M844,600.1l-0.8,0.8c-11.2,5.6-21.9,9.9-32,13c-10.2,3-18.8,4.6-25.9,4.6c-20.3,0-35.9-5.2-46.9-15.6
		c-10.9-10.4-18.2-22.7-21.7-37c-3.5-14.2-4.1-28.5-1.5-42.7c2.5-14.2,7.4-25.2,14.5-32.8c10.2-10.7,19.3-17.8,27.4-21.4
		c8.1-3.5,15-4.8,20.6-3.8c5.6,0.5,10.8,2.8,15.6,6.9s7.2,9.1,7.2,15.2c0,6.6-2.4,12.2-7.2,16.8s-10.3,6.9-16.4,6.9
		c-4.6,0-8.9-1.4-13-4.2c-4.1-2.8-6.9-6.5-8.4-11.1c-6.6,7.6-11.2,16.8-13.7,27.4c-2.5,10.7-3,20.9-1.5,30.5
		c1.5,9.7,5.5,17.9,11.8,24.8c6.4,6.9,15.1,10.6,26.3,11.1c4.1,0,9.9-1.9,17.5-5.7c7.6-3.8,15.4-10.2,23.3-19.1
		c7.9-8.9,14.9-20.3,21-34.3c6.1-14,9.8-30.9,11.1-50.7c1.3-19.8-0.9-42.9-6.5-69.4c-5.6-26.4-16.3-56.2-32-89.2
		c-5.1,9.7-10.8,20.2-17.2,31.6s-12.1,22.2-17.1,32.4c-2.5,3.6-5.6,5.6-9.1,6.1c-3.6,0.5-6.9,0.1-9.9-1.1c-3-1.3-5.2-3.3-6.5-6.1
		c-1.3-2.8-0.9-6,1.2-9.5c4.1-8.6,7.9-16.4,11.4-23.2c3.5-6.9,7.1-13.3,10.7-19.4c3.5-6.1,6.9-12.3,9.9-18.7
		c3.1-6.4,6.4-13.1,9.9-20.2c-5.6-8.1-9.9-17-13-26.7c-3-9.7-4.6-19.8-4.6-30.5c0-4.6,0.9-10.3,2.7-17.2c1.8-6.9,4.8-13.7,9.1-20.6
		c4.3-6.9,10.3-12.7,17.9-17.5c7.6-4.8,17.5-7.2,29.7-7.2c12.7,0,22,2.8,27.8,8.4c5.8,5.6,9,12.7,9.5,21.3
		c0.5,8.6-1.3,18.2-5.3,28.6c-4.1,10.4-9.4,20.7-16,30.9l-2.3,4.6c19.8,22.9,35.7,44.7,47.7,65.6c11.9,20.8,21,40.7,27.1,59.5
		c6.1,18.8,9.5,36.3,10.3,52.6c0.8,16.3-0.6,31.5-4.2,45.7c16.8-19.3,31.8-38.4,45-57.2c13.2-18.8,24.1-36.6,32.8-53.4
		c1.5-3.5,3.8-6,6.9-7.2c3-1.3,6.9-0.6,11.4,1.9c3.5,2,5.7,4.8,6.5,8.4c0.8,3.6,0.4,6.9-1.1,9.9c-12.2,24.9-26.3,48.3-42.3,70.1
		c-16,21.9-33.7,43.7-53,65.6c-13.7,15.2-28.1,29-43.1,41.2c-15,12.2-31.9,22.4-50.7,30.5H844z"/>
	<path class="st4" d="M950.7,578.7c-3.1-9.1-2.2-23.9,2.7-44.2c4.8-20.3,12.2-44.1,22.1-71.3c9.9-27.2,21.5-56.5,34.7-88.1
		c13.2-31.5,26.8-63.3,40.8-95.3c14-32,27.5-63.1,40.4-93.4c12.9-30.2,24.3-57.3,33.9-81.2c9.6-23.9,16.8-43.7,21.3-59.5
		c4.6-15.8,5.3-25.2,2.3-28.2c-3.6-3.1-1.9-6.6,5-10.7c6.9-4.1,15.5-6.3,25.9-6.9c10.4-0.5,21,1.8,31.6,6.9
		c10.7,5.1,18.3,15.3,22.9,30.5c3,9.7,2.3,23.6-2.3,41.9c-4.6,18.3-11.4,39.5-20.6,63.7c-9.1,24.1-20.1,50.4-32.8,78.9
		c-12.7,28.5-25.9,57.2-39.6,86.2c17.8-19.8,35.9-36.6,54.5-50.3c18.5-13.7,35.9-20.8,52.2-21.3c19.8-0.5,34.6,8.1,44.2,25.9
		c9.6,17.8,12.7,40.7,9.1,68.6c-1,17.3-4.8,35.4-11.4,54.5c-6.6,19.1-14.1,37.7-22.5,56c-8.4,18.3-16.8,35.7-25.2,52.2
		c-8.4,16.5-14.9,30.9-19.4,43.1c-4.6,12.2-6.5,22-5.7,29.4s6.2,11.1,16.4,11.1c4.6,0,10.9-3.7,19.1-11.1c8.1-7.4,17-17,26.7-29
		c9.6-11.9,19.7-25.4,30.1-40.4c10.4-15,20.2-29.9,29.4-44.6c9.1-14.7,17.3-28.8,24.4-42.3c7.1-13.5,12.2-24.5,15.3-33.2
		c1.5-4.1,4.1-6.6,7.6-7.6c3.6-1,6.9-1,9.9,0c3,1,5.5,3,7.2,6.1c1.8,3.1,1.6,6.4-0.4,9.9c-4.1,8.7-9.9,20.5-17.5,35.5
		c-7.6,15-16.6,31-27.1,48c-10.4,17-21.7,34.2-33.9,51.5c-12.2,17.3-24.8,33-37.7,47.3c-13,14.2-26.1,25.9-39.3,35.1
		c-13.2,9.1-25.9,13.7-38.1,13.7c-10.2,0.5-18.8-1.9-25.9-7.2c-7.1-5.3-13-12.6-17.5-21.7c-4.6-9.1-7.8-19.4-9.5-30.9
		c-1.8-11.4-1.9-23-0.4-34.7c2.5-20.8,7.4-41.4,14.5-61.8c7.1-20.3,14.9-39.8,23.3-58.3c8.4-18.5,16.6-35.6,24.8-51.1
		c8.1-15.5,14.2-29,18.3-40.4c4.1-11.4,5.4-20.2,4.2-26.3c-1.3-6.1-7.2-8.9-17.9-8.4c-6.6,0.5-16.1,6.1-28.6,16.8
		c-12.5,10.7-25.5,24-39.3,40c-13.7,16-27.2,33-40.4,51.1c-13.2,18-23.9,34.4-32,49.2l-9.9,20.6v0.8l-1.5,3
		c-16.3,36.1-29.1,66.8-38.5,92.3c-9.4,25.4-12.1,41.9-8,49.6c2,4.1,0.4,8.3-4.9,12.6c-5.3,4.3-12.2,6.6-20.6,6.9
		c-8.4,0.3-17-2.4-25.9-8C962,604.4,955.3,594,950.7,578.7z"/>
	<path class="st4" d="M1270.9,803.6c-0.5-4.6,0.1-10,1.9-16.4c1.8-6.4,6.2-13.1,13.3-20.2c8.2-8.1,17.9-15.5,29.4-22.1
		c11.4-6.6,23.4-13,35.8-19.1c12.5-6.1,24.7-12.3,36.6-18.7c11.9-6.4,22.2-13.3,30.9-21c6.1-18.8,14.1-39.8,24-62.9
		c9.9-23.1,20.5-47.7,31.6-73.6c-15.2,18.8-30.7,34.4-46.5,46.9c-15.8,12.5-31,18.9-45.7,19.4c-10.2,0.5-18.9-1.5-26.3-6.1
		c-7.4-4.6-13.4-11.1-17.9-19.4c-4.6-8.4-7.6-18.5-9.1-30.5c-1.5-11.9-1.5-24.8,0-38.5c2-16.8,6-34.6,11.8-53.4
		c5.9-18.8,12.6-37.6,20.2-56.4c7.6-18.8,15.4-37,23.3-54.5c7.9-17.5,14.7-33.4,20.6-47.7c5.8-14.2,9.9-26.3,12.2-36.2
		c2.3-9.9,1.6-16.4-1.9-19.4c-3.5-3.1-1.9-6.6,5-10.7c6.9-4.1,15.4-6.3,25.5-6.9c10.2-0.5,20.7,1.8,31.6,6.9
		c10.9,5.1,18.7,15.3,23.3,30.5c4.6,14.7,3.8,32.7-2.3,53.7c-6.1,21.1-14.6,43.1-25.5,65.9c-10.9,22.9-22.6,45.5-35.1,67.9
		c-12.5,22.4-22.9,42.3-31.3,59.9c-8.4,17.5-13.2,31.5-14.5,41.9c-1.3,10.4,3.9,15.1,15.6,14.1c6.1-0.5,15.1-7,27.1-19.4
		c11.9-12.4,24.4-27.7,37.4-45.7c12.9-18,25.8-37.2,38.5-57.6c12.7-20.3,22.9-38.4,30.5-54.1c8.1-18.8,15.6-36.6,22.5-53.4
		c6.9-16.8,12.4-31.8,16.8-45c4.3-13.2,7.2-24.3,8.8-33.2c1.5-8.9,1-14.9-1.5-17.9c-2.5-3-0.3-6.6,6.9-10.7c7.1-4.1,16-6.3,26.7-6.9
		c10.7-0.5,21.2,2,31.6,7.6c10.4,5.6,17.9,16.3,22.5,32c2.5,8.6,1.3,22.5-3.8,41.5c-5.1,19.1-12.2,40.5-21.3,64.4
		c-9.2,23.9-19.6,48.9-31.3,75.1c-11.7,26.2-22.9,50.8-33.5,74c-10.7,23.1-20.1,43.3-28.2,60.6c-8.1,17.3-13.2,29.2-15.3,35.8
		c18.3-12.2,37.4-29.4,57.2-51.5c19.8-22.1,38.4-45.2,55.7-69.4c17.3-24.1,32.5-47.7,45.7-70.5c13.2-22.9,22.4-41.2,27.5-54.9
		c1.5-4.6,4.1-7.5,7.6-8.8c3.5-1.3,6.9-1.4,9.9-0.4c3,1,5.4,3,7.2,6.1c1.8,3.1,1.9,6.4,0.4,9.9c-11.7,25.9-26.3,53.2-43.8,82
		c-17.5,28.7-36.7,56.3-57.6,82.7c-20.8,26.4-42.7,50.2-65.6,71.3c-22.9,21.1-45.2,37.2-67.1,48.4c-3,7.6-7.1,17.4-12.2,29.4
		c-5.1,11.9-10.3,24-15.6,36.2c-5.3,12.2-10.2,23.6-14.5,34.3c-4.3,10.7-7.5,18.5-9.5,23.6c-5.1,14.2-13.1,26.3-24,36.2
		s-23.2,17.5-37,22.9c-13.7,5.3-28,8.4-42.7,9.1c-14.7,0.8-28.5-0.8-41.2-4.6c-12.7-3.8-23.7-10.2-33.2-19.1
		C1279.4,828.7,1273.4,817.4,1270.9,803.6z M1408.1,720.5c-7.6,6.1-16.3,11.4-25.9,16c-9.7,4.6-19.3,9.1-29,13.7
		c-9.6,4.6-18.9,9.7-27.8,15.3c-8.9,5.6-16.1,12.2-21.7,19.8c-3.5,5.1-4.9,10.7-4.2,16.8c0.8,6.1,3,11.5,6.9,16.4
		c3.8,4.8,8.7,8.5,14.5,11.1c5.9,2.5,12.3,2.8,19.4,0.8c7.1-2,14.5-7,22.1-14.9c7.6-7.9,14.7-20,21.3-36.2c3-7.1,6.7-15.5,11.1-25.2
		C1399.1,744.4,1403.6,733.2,1408.1,720.5z"/>
</g>
</svg>
