<svg width="242" height="61" viewBox="0 0 242 61">
  <g fill-rule="evenodd">
    <path d="M0,0.000175539568 L0,4.82663597 L0,56.0293338 L0,60.8557942 L4.82158696,60.8557942 L237.09687,60.8557942 L241.918457,60.8557942 L241.918457,0.000175539568 L0,0.000175539568 Z M4.82158696,56.0293338 L237.09687,56.0293338 L237.09687,4.82663597 L4.82158696,4.82663597 L4.82158696,56.0293338 Z"/>
    <g transform="translate(16.221 18.424)">
      <path d="M0.225121377,5.85784317 C0.225121377,4.88403741 0.421527174,4.03135396 0.814777174,3.3006705 C1.20758877,2.56998705 1.74112862,1.96569209 2.41495833,1.48778561 C3.08878804,1.00987914 3.87484964,0.654411511 4.77358152,0.419627338 C5.671875,0.185720863 6.62672283,0.0685482014 7.63724819,0.0685482014 C8.87267572,0.0685482014 10.0655779,0.208979856 11.2168315,0.490282014 C12.3680851,0.770706475 13.373788,1.15513813 14.2352554,1.64226043 L14.2352554,6.42000863 C13.3926395,5.78323885 12.4382301,5.30972086 11.3715888,5.00077122 C10.3045091,4.69182158 9.20016486,4.54700144 8.05811775,4.56543309 C7.10370833,4.5843036 6.44829167,4.70586475 6.09318297,4.9305554 C5.73719746,5.15524604 5.55964312,5.45541871 5.55964312,5.83019568 C5.55964312,6.26114532 5.81216486,6.61266331 6.31720833,6.88387194 C6.82312862,7.15551942 7.45443297,7.42233957 8.212875,7.68477122 C8.97087862,7.94764173 9.78938225,8.23289353 10.6692627,8.54184317 C11.5491431,8.85079281 12.3680851,9.25848345 13.1260888,9.76447626 C13.8840924,10.2704691 14.5158351,10.9076777 15.021317,11.6756633 C15.5263605,12.4440878 15.7793207,13.4091165 15.7793207,14.5707496 C15.7793207,15.7323827 15.5732699,16.7022388 15.1616069,17.4790014 C14.7499438,18.2570806 14.1835236,18.8754187 13.4627844,19.3340158 C12.7424837,19.7934906 11.9051286,20.1164835 10.9502808,20.3038719 C9.99543297,20.4908216 8.9844692,20.5851741 7.9178279,20.5851741 C6.49520109,20.5851741 5.1427192,20.4302604 3.86082065,20.1213108 C2.5784837,19.8119223 1.41363949,19.3669295 0.365411232,18.7863324 L0.365411232,13.8677137 C1.54472283,14.6738791 2.75209239,15.2452604 3.98708152,15.5822964 C5.22250906,15.9197712 6.40182065,16.0882892 7.5245779,16.0882892 C8.55395471,16.0882892 9.29792935,15.9899871 9.75694022,15.7929439 C10.2155127,15.5959007 10.4452373,15.2544763 10.4452373,14.767354 C10.4452373,14.2991022 10.1918388,13.9146705 9.68679529,13.6149367 C9.18131341,13.3152029 8.54957065,13.0295122 7.79156703,12.7578647 C7.03356341,12.4862173 6.21462138,12.1952604 5.33474094,11.8863108 C4.45486051,11.5773612 3.63635688,11.1696705 2.87835326,10.6636777 C2.11991123,10.1581237 1.48860688,9.5253036 0.983125,8.76697266 C0.477643116,8.00776403 0.225121377,7.03834676 0.225121377,5.85784317 Z"/>
      <polygon points="33.158 .973 33.158 5.609 27.627 5.609 27.627 20.646 22.433 20.646 22.433 5.609 16.874 5.609 16.874 .973"/>
      <path d="M39.2227199,13.338418 L44.2762236,13.338418 L42.2547344,7.6610295 C42.1609156,7.41834604 42.0767417,7.15547554 42.0022127,6.87461223 C41.9272453,6.59331007 41.8430714,6.19088561 41.7496909,5.6660223 C41.6554337,6.19088561 41.5712598,6.59331007 41.4967308,6.87461223 C41.4217634,7.15547554 41.3375895,7.41834604 41.2437707,7.6610295 L39.2227199,13.338418 Z M31.2209373,20.6456914 L38.9417018,0.972533094 L44.5572417,0.972533094 L52.2780062,20.6456914 L46.9434844,20.6456914 L45.8207272,17.5540007 L37.6786547,17.5540007 L36.5554591,20.6456914 L31.2209373,20.6456914 Z"/>
      <polygon points="57.136 20.646 57.136 13.929 49.471 .973 55.367 .973 59.719 9.095 64.07 .973 69.966 .973 62.301 13.929 62.301 20.646"/>
      <path d="M81.7305022,10.0221683 L85.0439732,10.0221683 C85.7923319,10.0221683 86.3960167,9.83521871 86.8545891,9.46044173 C87.3127232,9.0852259 87.5424478,8.5138446 87.5424478,7.74585899 C87.5424478,6.97787338 87.3127232,6.40649209 86.8545891,6.03127626 C86.3960167,5.65693813 85.7923319,5.46911079 85.0439732,5.46911079 L81.7305022,5.46911079 L81.7305022,10.0221683 Z M76.5362703,20.645823 L76.5362703,0.972664748 L84.819071,0.972664748 C85.8111833,0.972664748 86.7888283,1.0753554 87.7528826,1.28161439 C88.716937,1.48831223 89.5779659,1.84377986 90.3359696,2.34977266 C91.0939732,2.85532662 91.7068645,3.5351036 92.1750819,4.3873482 C92.6428609,5.24003165 92.8769696,6.31257842 92.8769696,7.60498849 C92.8769696,8.43002446 92.7831507,9.15544173 92.5959514,9.78343453 C92.4087522,10.4114273 92.1470239,10.9639381 91.8098899,11.4414058 C91.4731942,11.9193122 91.0751217,12.3270029 90.6169877,12.6644777 C90.1579768,13.0010748 89.6573174,13.282377 89.1150094,13.5070676 L94.5332667,20.645823 L88.6652051,20.645823 L83.9768935,14.2377511 L81.7305022,14.2377511 L81.7305022,20.645823 L76.5362703,20.645823 Z"/>
      <polygon points="110.649 .973 110.649 5.469 101.693 5.469 101.693 8.476 109.807 8.476 109.807 12.945 101.693 12.945 101.693 16.149 110.818 16.149 110.818 20.646 96.499 20.646 96.499 .973"/>
      <path d="M112.642846,10.8090245 C112.642846,8.97288058 112.951483,7.40838417 113.569197,6.1159741 C114.186472,4.82268633 115.00103,3.76462158 116.011994,2.93958561 C117.02252,2.11542734 118.178157,1.51113237 119.479346,1.12713957 C120.780096,0.743146763 122.113726,0.550930935 123.480237,0.550930935 C124.546878,0.550930935 125.595107,0.65888777 126.624922,0.873923741 C127.65386,1.08983741 128.636328,1.39395971 129.572762,1.78716835 L129.572762,6.70578705 C128.842817,6.19979424 128.005023,5.81141295 127.05982,5.53932662 C126.114617,5.26811799 125.146179,5.13163597 124.154067,5.13163597 C123.368005,5.13163597 122.600357,5.24003165 121.851559,5.45550647 C121.102762,5.67098129 120.442962,6.00318993 119.872157,6.45301007 C119.301353,6.90283022 118.84278,7.48869353 118.496878,8.20928345 C118.150099,8.93118993 117.977367,9.79703885 117.977367,10.8090245 C117.977367,12.0272691 118.173773,13.0111683 118.567023,13.7602835 C118.959835,14.5098374 119.450849,15.0952619 120.040943,15.5169957 C120.630599,15.9382906 121.261904,16.2244201 121.935733,16.3740676 C122.609563,16.5237151 123.227715,16.5987583 123.788875,16.5987583 C124.31277,16.5987583 124.762136,16.5522403 125.136534,16.4583266 L125.136534,9.82556403 L130.050186,9.82556403 L130.050186,19.7461827 C129.039222,20.1780101 127.981349,20.5053914 126.877443,20.730082 C125.772661,20.9547727 124.65911,21.0675568 123.536353,21.0675568 C122.132578,21.0675568 120.775273,20.8656863 119.465317,20.4632619 C118.154922,20.0603986 116.994462,19.4420604 115.983498,18.6082475 C114.972972,17.7748734 114.163237,16.7111036 113.555168,15.4182547 C112.946661,14.1258446 112.642846,12.5894345 112.642846,10.8090245 L112.642846,10.8090245 Z M150.713917,0.972620863 L150.713917,13.1414626 C150.713917,14.6225777 150.456135,15.8680309 149.941885,16.8795777 C149.426758,17.8915633 148.752928,18.7065058 147.920396,19.3248439 C147.087425,19.9436209 146.141783,20.3886137 145.084349,20.6598223 C144.026914,20.9310309 142.95545,21.0675129 141.869957,21.0675129 C140.784464,21.0675129 139.712124,20.9310309 138.655128,20.6598223 C137.597254,20.3886137 136.652051,19.9436209 135.81908,19.3248439 C134.986109,18.7065058 134.312718,17.8915633 133.79803,16.8795777 C133.282903,15.8680309 133.025559,14.6225777 133.025559,13.1414626 L133.025559,0.972620863 L138.219791,0.972620863 L138.219791,12.8610381 C138.219791,14.1911892 138.552102,15.118477 139.216287,15.6433403 C139.88091,16.1677647 140.765175,16.4301964 141.869957,16.4301964 C142.974301,16.4301964 143.858128,16.1677647 144.523189,15.6433403 C145.187374,15.118477 145.519686,14.1911892 145.519686,12.8610381 L145.519686,0.972620863 L150.713917,0.972620863 Z"/>
      <polygon points="158.856 .973 158.856 16.008 167.84 16.008 167.84 20.646 153.661 20.646 153.661 .973"/>
      <path d="M177.358205,13.338418 L182.411709,13.338418 L180.39022,7.6610295 C180.296401,7.41834604 180.212227,7.15547554 180.137698,6.87461223 C180.06273,6.59331007 179.978557,6.19088561 179.885176,5.6660223 C179.790919,6.19088561 179.706745,6.59331007 179.632216,6.87461223 C179.557249,7.15547554 179.473075,7.41834604 179.379256,7.6610295 L177.358205,13.338418 Z M169.356422,20.6456914 L177.077187,0.972533094 L182.692727,0.972533094 L190.413491,20.6456914 L185.07897,20.6456914 L183.956212,17.5540007 L175.81414,17.5540007 L174.690944,20.6456914 L169.356422,20.6456914 Z M197.488484,10.0221683 L200.801955,10.0221683 C201.550314,10.0221683 202.153999,9.83521871 202.612571,9.46044173 C203.070705,9.0852259 203.30043,8.5138446 203.30043,7.74585899 C203.30043,6.97787338 203.070705,6.40649209 202.612571,6.03127626 C202.153999,5.65693813 201.550314,5.46911079 200.801955,5.46911079 L197.488484,5.46911079 L197.488484,10.0221683 Z M192.294252,20.645823 L192.294252,0.972664748 L200.577053,0.972664748 C201.569165,0.972664748 202.54681,1.0753554 203.510864,1.28161439 C204.474919,1.48831223 205.335948,1.84377986 206.093951,2.34977266 C206.851955,2.85532662 207.464846,3.5351036 207.933064,4.3873482 C208.400843,5.24003165 208.634951,6.31257842 208.634951,7.60498849 C208.634951,8.43002446 208.541133,9.15544173 208.353933,9.78343453 C208.166734,10.4114273 207.905006,10.9639381 207.567872,11.4414058 C207.231176,11.9193122 206.833104,12.3270029 206.37497,12.6644777 C205.915959,13.0010748 205.415299,13.282377 204.872991,13.5070676 L210.291249,20.645823 L204.423187,20.645823 L199.734875,14.2377511 L197.488484,14.2377511 L197.488484,20.645823 L192.294252,20.645823 Z"/>
    </g>
  </g>
</svg>
